<svg width="45" height="45" viewBox="0 0 45 45" fill="none" xmlns="http://www.w3.org/2000/svg">
<rect x="0.5" y="0.5" width="44" height="44" rx="9.5" fill="#FF6B72" fill-opacity="0.1" stroke="#FF6B72"/>
<path d="M28.0895 15.8053C28.0895 12.365 25.3022 9.57758 21.8619 9.57758C18.4216 9.57758 15.6342 12.365 15.6342 15.8053C15.6342 17.8845 16.6537 19.7277 18.2207 20.8577C18.2106 20.8627 18.2031 20.8652 18.1981 20.8678C17.0756 21.3424 16.0686 22.0229 15.2023 22.8917C14.3409 23.7515 13.6552 24.7708 13.1833 25.8926C12.719 26.9911 12.4684 28.1681 12.445 29.3605C12.4443 29.3873 12.449 29.414 12.4588 29.4389C12.4686 29.4639 12.4833 29.4866 12.502 29.5058C12.5208 29.525 12.5431 29.5402 12.5678 29.5507C12.5926 29.5611 12.6191 29.5664 12.6459 29.5664H14.1501C14.2581 29.5664 14.3485 29.4785 14.351 29.3705C14.4012 27.4319 15.1772 25.6164 16.5508 24.2402C17.9696 22.8164 19.8529 22.0329 21.8619 22.0329C25.3022 22.0329 28.0895 19.2455 28.0895 15.8053ZM21.8619 20.1245C19.4763 20.1245 17.5427 18.1909 17.5427 15.8053C17.5427 13.4197 19.4763 11.4861 21.8619 11.4861C24.2475 11.4861 26.1811 13.4197 26.1811 15.8053C26.1811 18.1909 24.2475 20.1245 21.8619 20.1245ZM24.4986 25.6741H31.128C31.2385 25.6741 31.3289 25.5837 31.3289 25.4732V24.067C31.3289 23.9565 31.2385 23.8661 31.128 23.8661H26.6958L27.8811 22.3569C27.9084 22.3216 27.9234 22.2784 27.9238 22.2338C27.9238 22.1233 27.8334 22.0329 27.7229 22.0329H25.8998C25.7768 22.0329 25.6612 22.0907 25.5834 22.1861L23.8633 24.3733C23.7528 24.514 23.6925 24.6897 23.6925 24.8705C23.695 25.315 24.0541 25.6741 24.4986 25.6741ZM30.5254 27.2813H23.8959C23.7854 27.2813 23.695 27.3717 23.695 27.4822V28.8884C23.695 28.9989 23.7854 29.0893 23.8959 29.0893H28.3281L27.1428 30.5985C27.1155 30.6337 27.1005 30.677 27.1001 30.7215C27.1001 30.832 27.1905 30.9224 27.301 30.9224H29.1241C29.2472 30.9224 29.3627 30.8647 29.4405 30.7693L31.1607 28.582C31.2712 28.4414 31.3314 28.2656 31.3314 28.0848C31.3289 27.6404 30.9698 27.2813 30.5254 27.2813Z" fill="#FF6B72"/>
</svg>
